<svg xmlns="http://www.w3.org/2000/svg" viewBox="0 0 512 512" width="35.93" height="32">
  <rect width="512" height="512" fill="#3178C6"/>
  <path fill="#FFF" d="M235.038 271.038h-69.131v-32.562h172.186v32.562h-69.079v171.236h-34.054zM349.944 349.176c0-19.059 2.91-30.362 9.084-33.908 6.223-3.545 16.264-5.317 30.121-5.317h4.414c6.555 0 13.496.466 20.823 1.397v33.302c-7.833-.62-15.725-.93-23.674-.93-10.638 0-17.905 1.689-21.805 5.065-3.899 3.376-5.849 10.113-5.849 20.212 0 8.817 2.075 14.931 6.228 18.34 4.153 3.409 13.049 6.113 26.686 8.111 19.415 2.951 33.417 8.184 41.994 15.698 8.578 7.513 12.865 19.439 12.865 35.775 0 18.056-6.365 30.963-19.096 38.719-12.731 7.756-29.958 11.634-51.679 11.634-12.582 0-25.739-.886-39.47-2.66v-35.882c9.572 1.309 19.465 2.092 29.681 2.352 10.423.31 18.382-1.276 23.878-4.726 5.496-3.449 8.244-9.915 8.244-19.397 0-9.059-3.104-15.264-9.312-18.615-6.209-3.351-15.9-5.708-29.072-7.071-21.667-2.343-37.1-6.678-46.3-12.005-9.201-5.327-15.85-12.714-19.948-22.163-4.097-9.45-6.147-21.234-6.147-35.351z"/>
</svg>
